<?xml version="1.0" encoding="UTF-8" standalone="no"?>
<!-- Created with Inkscape (http://www.inkscape.org/) -->

<svg
   xmlns:dc="http://purl.org/dc/elements/1.1/"
   xmlns:cc="http://creativecommons.org/ns#"
   xmlns:rdf="http://www.w3.org/1999/02/22-rdf-syntax-ns#"
   xmlns:svg="http://www.w3.org/2000/svg"
   xmlns="http://www.w3.org/2000/svg"
   xmlns:sodipodi="http://sodipodi.sourceforge.net/DTD/sodipodi-0.dtd"
   xmlns:inkscape="http://www.inkscape.org/namespaces/inkscape"
   width="45.687mm"
   height="45.688mm"
   viewBox="0 0 45.687 45.688"
   version="1.1"
   id="svg5992"
   inkscape:version="0.92.1 r15371"
   sodipodi:docname="Pallino foto con bordo.svg">
  <defs
     id="defs5986" />
  <sodipodi:namedview
     id="base"
     pagecolor="#ffffff"
     bordercolor="#666666"
     borderopacity="1.0"
     inkscape:pageopacity="0.0"
     inkscape:pageshadow="2"
     inkscape:zoom="0.98994949"
     inkscape:cx="8.9566425"
     inkscape:cy="249.28228"
     inkscape:document-units="mm"
     inkscape:current-layer="layer1"
     showgrid="false"
     fit-margin-top="0"
     fit-margin-left="0"
     fit-margin-right="0"
     fit-margin-bottom="0"
     inkscape:window-width="1366"
     inkscape:window-height="705"
     inkscape:window-x="-8"
     inkscape:window-y="-8"
     inkscape:window-maximized="1" />
  <metadata
     id="metadata5989">
    <rdf:RDF>
      <cc:Work
         rdf:about="">
        <dc:format>image/svg+xml</dc:format>
        <dc:type
           rdf:resource="http://purl.org/dc/dcmitype/StillImage" />
        <dc:title></dc:title>
      </cc:Work>
    </rdf:RDF>
  </metadata>
  <g
     inkscape:label="Livello 1"
     inkscape:groupmode="layer"
     id="layer1"
     transform="translate(-53.696676,-121.26464)">
    <ellipse
       style="opacity:1;fill:#ffffff;fill-opacity:1;fill-rule:nonzero;stroke:none;stroke-width:14.4378376;stroke-linecap:square;stroke-linejoin:round;stroke-miterlimit:4;stroke-dasharray:none;stroke-dashoffset:0;stroke-opacity:1;paint-order:normal"
       id="path7149"
       cx="76.540176"
       cy="144.10864"
       rx="22.8435"
       ry="22.844" />
    <circle
       style="opacity:1;fill:#2f9a66;fill-opacity:1;fill-rule:nonzero;stroke:none;stroke-width:7.2062602;stroke-linecap:square;stroke-linejoin:round;stroke-miterlimit:4;stroke-dasharray:none;stroke-dashoffset:0;stroke-opacity:1;paint-order:normal"
       id="path6537"
       cx="76.540176"
       cy="144.10864"
       r="19.84375" />
    <path
       inkscape:connector-curvature="0"
       d="m 79.227898,140.7634 c 0.507353,0.0428 1.006319,0.18503 1.459258,0.41669 0.452675,0.23198 0.859258,0.55371 1.186861,0.93592 0.328198,0.38301 0.577021,0.82657 0.729959,1.29793 0.152939,0.4711 0.209268,0.96974 0.166873,1.46157 -0.04279,0.49151 -0.184372,0.97581 -0.417016,1.41713 -0.232644,0.44158 -0.555691,0.84011 -0.945104,1.16415 -0.389149,0.32463 -0.844664,0.57411 -1.330357,0.72705 -0.485627,0.1532 -1.000838,0.2096 -1.508191,0.16714 -0.507418,-0.0427 -1.005988,-0.18464 -1.458664,-0.41662 -0.452939,-0.23199 -0.859851,-0.55371 -1.187785,-0.93606 -0.328198,-0.38294 -0.577021,-0.8265 -0.729629,-1.2976 -0.152939,-0.47137 -0.209598,-0.97 -0.166873,-1.46151 0.04246,-0.49183 0.184372,-0.9762 0.417016,-1.41778 0.232314,-0.44132 0.555295,-0.83985 0.944774,-1.16408 0.389149,-0.32404 0.844663,-0.57379 1.330357,-0.72706 0.485627,-0.15327 1.001102,-0.20966 1.508521,-0.16687 z m -1.780391,-0.65639 c -0.593529,0.18886 -1.149881,0.4954 -1.62481,0.89359 -0.475325,0.3982 -0.869295,0.88765 -1.152786,1.43034 -0.283558,0.54307 -0.456241,1.13885 -0.507419,1.74347 -0.05085,0.60489 0.01941,1.21856 0.208343,1.7975 0.188268,0.57893 0.49441,1.12326 0.896171,1.59212 0.401762,0.46846 0.899738,0.86117 1.454108,1.144 0.55371,0.28316 1.164144,0.45591 1.784286,0.50742 0.620142,0.0508 1.250586,-0.0195 1.843521,-0.20801 0.593265,-0.18893 1.149881,-0.49507 1.625206,-0.89327 0.47493,-0.39786 0.869559,-0.88745 1.153117,-1.43013 0.283491,-0.54269 0.456505,-1.13846 0.507683,-1.74308 0.05118,-0.60489 -0.01942,-1.21856 -0.207683,-1.7975 -0.187937,-0.57933 -0.493749,-1.12366 -0.895511,-1.59205 -0.402091,-0.46886 -0.899473,-0.8619 -1.453777,-1.14506 -0.55437,-0.2835 -1.165465,-0.45651 -1.786268,-0.50802 -0.620736,-0.0508 -1.250915,0.0194 -1.844181,0.20868 m -4.780923,-2.30003 h -8.050025 v 14.74526 H 88.463793 V 137.80698 H 85.11076 l -0.728374,-2.14194 H 73.297423 Z"
       style="fill:#ffffff;fill-opacity:1;fill-rule:evenodd;stroke:none;stroke-width:0.11429851"
       id="path5183" />
  </g>
</svg>
