<?xml version="1.0" encoding="UTF-8" standalone="no"?>
<svg xmlns="http://www.w3.org/2000/svg" height="156" width="156" version="1.1">
  <circle r="70" stroke="#FFF" cy="78" cx="78" stroke-width="12" fill="#E6E6E6"/>
  <circle cy="78" cx="78" r="56" fill="#FFF"/>
  <g transform="matrix(.11441883 0 0 .11441883 18.053605 44.469281)">
    <path d="m119.4207 543.01679h29.16277v-499.96429h-29.16277v499.96429zm60.27256 0h89.42926v-499.96429h-89.42926v499.96429zm118.5981-499.96429v499.94645h89.42926v-499.94645h-89.42926z" fill="#900"/>
    <path d="m838.97933 543.0524h29.16883v-499.99996h-29.16883v499.99996zm60.27862-499.99996v499.99996h29.16277v-499.99996h-29.16277zm-481.40408 500.00003h29.16277v-499.99997h-29.16277v499.99997zm60.27862-499.99997v499.98213h29.16884v-499.98213h-29.16884z" fill="#396"/>
    <path d="m537.42244 543.05247h89.4414v-499.99997h-89.4414v499.99997zm118.5981 0h31.10372v-499.99997h-31.10372v499.99997zm60.27256-499.99997v499.98213h89.42926v-499.98213h-89.42926z" fill="#069"/>
  </g>
</svg>
