<?xml version="1.0" encoding="UTF-8" standalone="no"?>
<!-- Generator: Adobe Illustrator 13.0.0, SVG Export Plug-In . SVG Version: 6.00 Build 14948)  -->

<svg
   xmlns:dc="http://purl.org/dc/elements/1.1/"
   xmlns:cc="http://creativecommons.org/ns#"
   xmlns:rdf="http://www.w3.org/1999/02/22-rdf-syntax-ns#"
   xmlns:svg="http://www.w3.org/2000/svg"
   xmlns="http://www.w3.org/2000/svg"
   xmlns:sodipodi="http://sodipodi.sourceforge.net/DTD/sodipodi-0.dtd"
   xmlns:inkscape="http://www.inkscape.org/namespaces/inkscape"
   version="1.0"
   id="svg2"
   inkscape:version="0.91 r13725"
   sodipodi:docname="Wikipedia-W-bold-in-square-Clean[1].svg"
   sodipodi:version="0.32"
   x="0px"
   y="0px"
   width="54"
   height="37.148102"
   viewBox="0 0 54 37.148102"
   enable-background="new 0 0 1700 1700"
   xml:space="preserve"><metadata
     id="metadata4141"><rdf:RDF><cc:Work
         rdf:about=""><dc:format>image/svg+xml</dc:format><dc:type
           rdf:resource="http://purl.org/dc/dcmitype/StillImage" /><dc:title></dc:title></cc:Work></rdf:RDF></metadata><defs
     id="defs4139" /><sodipodi:namedview
     id="base"
     inkscape:window-y="1072"
     inkscape:current-layer="svg2"
     inkscape:window-x="266"
     inkscape:guide-bbox="true"
     inkscape:pageopacity="0.0"
     inkscape:pageshadow="2"
     inkscape:window-height="937"
     inkscape:window-width="1375"
     gridtolerance="10.0"
     objecttolerance="10.0"
     borderopacity="1.0"
     inkscape:cx="173.77963"
     inkscape:cy="129.72695"
     guidetolerance="10.0"
     inkscape:zoom="2.7544021"
     bordercolor="#666666"
     pagecolor="#ffffff"
     showguides="true"
     showgrid="false"
     fit-margin-top="2"
     fit-margin-left="2"
     fit-margin-right="2"
     fit-margin-bottom="2"
     inkscape:window-maximized="1" /><path
     id="path1873"
     sodipodi:nodetypes="ccccccccccccccccccccccccccccccccccccccc"
     d="m 6.6816025,8.2252998 c -1.1203893,-1.8843 -3.0578013,-3.7469 -4.4561646,-4.2842 L 2,3.8540998 l 0,-0.9073 0,-0.9468 12.84684,0 0,1.7413 c -1.679227,0.2087 -3.703411,1.0295 -3.142472,2.9118 C 14.905739,13.7263 17.818774,20.9267 20.979371,28.0178 L 26.404212,17.8739 C 24.305048,13.574 22.775811,9.2242998 20.477856,5.0058998 c -0.749222,-1.2148 -2.775303,-1.2487 -4.210238,-1.2956 l 0,-1.7103 12.041843,0 0,1.694 c -1.08198,0.1495 -2.357438,0.4066 -2.212789,1.7179 L 29.503254,12.9461 c 1.12109,-2.3916 2.367157,-4.7325002 3.355856,-7.1837002 0.448833,-1.9407 -1.734594,-2.0372 -3.127061,-2.0913 l 0,-1.6711 10.700947,0 0,1.6666 c -1.567792,0.1108 -3.050884,0.563 -3.915539,1.7221 -2.101879,3.2493 -3.661003,6.9363002 -5.298113,10.4656002 1.617555,3.8251 3.303436,7.6449 4.956716,11.1522 L 45.317271,5.9211998 c -0.616656,-1.3899 -2.013181,-1.8808 -3.383933,-2.1988 l 0,-1.7224 10.066662,0 0,1.7569 c -0.451664,0.07 -0.884094,0.2095 -1.302281,0.392 -0.792622,0.3678 -1.541378,1.098 -2.043564,1.9928 L 36.047084,35.1481 l -2.104418,0 -5.994157,-14.1175 -7.276153,14.1164 -2.184536,3e-4 C 14.236721,26.2922 11.161087,16.9738 6.6816025,8.2252998 Z"
     inkscape:connector-curvature="0" /></svg>